<svg xmlns="http://www.w3.org/2000/svg" viewBox="0 0 19.8 19.8"><defs><style>.cls-1{fill:#3a3a3a;}.cls-2{fill:#fff;}</style></defs><g id="Layer_2" data-name="Layer 2"><g id="Layer_1-2" data-name="Layer 1"><path class="cls-1" d="M19.8,17.05a2.75,2.75,0,0,1-2.75,2.75H2.75A2.75,2.75,0,0,1,0,17.05V2.75A2.75,2.75,0,0,1,2.75,0h14.3A2.75,2.75,0,0,1,19.8,2.75Z"/><rect class="cls-2" x="3.3" y="7.15" width="2.75" height="9.35"/><path class="cls-2" d="M4.67,6.05h0A1.32,1.32,0,0,1,3.3,4.67,1.32,1.32,0,0,1,4.68,3.3,1.32,1.32,0,0,1,6.05,4.67,1.32,1.32,0,0,1,4.67,6.05Z"/><path class="cls-2" d="M16.5,16.5H13.75v-5a1.8,1.8,0,0,0-1.76-2,1.57,1.57,0,0,0-1.48,1.1,3.88,3.88,0,0,0-.06,1V16.5H7.7V7.15h2.75V8.59a2.8,2.8,0,0,1,2.61-1.44c2,0,3.44,1.24,3.44,4V16.5Z"/></g></g></svg>