<svg xmlns="http://www.w3.org/2000/svg" viewBox="0 0 19.04 15.47"><defs><style>.cls-1{fill:#3a3a3a;}</style></defs><g id="Layer_2" data-name="Layer 2"><g id="Layer_1-2" data-name="Layer 1"><path class="cls-1" d="M19,1.83a8.16,8.16,0,0,1-2.25.62A3.89,3.89,0,0,0,18.51.29a7.93,7.93,0,0,1-2.48,1A3.9,3.9,0,0,0,9.28,3.9a4.26,4.26,0,0,0,.09.89,11,11,0,0,1-8-4.08,3.89,3.89,0,0,0,1.2,5.22A3.93,3.93,0,0,1,.76,5.45v0A3.93,3.93,0,0,0,3.89,9.33a4.19,4.19,0,0,1-1,.13,3.57,3.57,0,0,1-.74-.07,3.94,3.94,0,0,0,3.64,2.72A7.81,7.81,0,0,1,.93,13.77a7.15,7.15,0,0,1-.93,0,11,11,0,0,0,6,1.75A11,11,0,0,0,17.1,4.36c0-.17,0-.34,0-.5A7.72,7.72,0,0,0,19,1.83Z"/></g></g></svg>