<svg xmlns="http://www.w3.org/2000/svg" viewBox="0 0 19.04 18.25"><defs><style>.cls-1{fill:#3a3a3a;}</style></defs><g id="Layer_2" data-name="Layer 2"><g id="Layer_1-2" data-name="Layer 1"><path class="cls-1" d="M9.52,0A9.44,9.44,0,0,0,0,9.36a9.36,9.36,0,0,0,6.51,8.87c.48.09.65-.2.65-.45s0-.81,0-1.59c-2.65.57-3.21-1.25-3.21-1.25a2.48,2.48,0,0,0-1.06-1.37C2,13,3,13,3,13a2,2,0,0,1,1.46,1,2,2,0,0,0,2.77.78,2,2,0,0,1,.6-1.25c-2.11-.23-4.33-1-4.33-4.62a3.57,3.57,0,0,1,1-2.51,3.27,3.27,0,0,1,.08-2.48s.8-.25,2.62,1a9.42,9.42,0,0,1,2.38-.32,9.42,9.42,0,0,1,2.38.32c1.81-1.21,2.6-1,2.6-1a3.37,3.37,0,0,1,.1,2.48,3.57,3.57,0,0,1,1,2.51c0,3.59-2.23,4.38-4.35,4.61a2.24,2.24,0,0,1,.64,1.73c0,1.26,0,2.26,0,2.57s.17.53.66.44A9.34,9.34,0,0,0,19,9.36,9.44,9.44,0,0,0,9.52,0Z"/></g></g></svg>